<?xml version="1.0" encoding="UTF-8" standalone="no"?>
<svg
   xmlns:dc="http://purl.org/dc/elements/1.1/"
   xmlns:cc="http://creativecommons.org/ns#"
   xmlns:rdf="http://www.w3.org/1999/02/22-rdf-syntax-ns#"
   xmlns:svg="http://www.w3.org/2000/svg"
   xmlns="http://www.w3.org/2000/svg"
   xmlns:sodipodi="http://sodipodi.sourceforge.net/DTD/sodipodi-0.dtd"
   xmlns:inkscape="http://www.inkscape.org/namespaces/inkscape"
   width="213"
   height="213"
   viewBox="0 0 213 213"
   version="1.1"
   id="svg43"
   sodipodi:docname="cm-logo-web-icon.svg"
   inkscape:version="0.92.2 5c3e80d, 2017-08-06"
   style="fill:none">
  <metadata
     id="metadata47">
    <rdf:RDF>
      <cc:Work
         rdf:about="">
        <dc:format>image/svg+xml</dc:format>
        <dc:type
           rdf:resource="http://purl.org/dc/dcmitype/StillImage" />
        <dc:title></dc:title>
      </cc:Work>
    </rdf:RDF>
  </metadata>
  <sodipodi:namedview
     pagecolor="#ffffff"
     bordercolor="#666666"
     borderopacity="1"
     objecttolerance="10"
     gridtolerance="10"
     guidetolerance="10"
     inkscape:pageopacity="0"
     inkscape:pageshadow="2"
     inkscape:window-width="1269"
     inkscape:window-height="759"
     id="namedview45"
     showgrid="false"
     inkscape:zoom="0.44746601"
     inkscape:cx="493.39032"
     inkscape:cy="24.832007"
     inkscape:window-x="0"
     inkscape:window-y="0"
     inkscape:window-maximized="0"
     inkscape:current-layer="svg43" />
  <path
     id="path34"
     style="clip-rule:evenodd;fill:#ff006b;fill-rule:evenodd"
     d="m 31.4854,146.464 c -4.0873,-4.087 -4.0873,-10.714 0,-14.801 l 11.8413,-11.842 c 7.3573,-7.357 7.3573,-19.285 0,-26.6426 L 32.9656,82.8173 c -4.0873,-4.0874 -4.0873,-10.7143 0,-14.8016 4.0874,-4.0874 10.7143,-4.0874 14.8016,0 l 10.3611,10.3611 c 15.532,15.5319 15.532,40.7142 0,56.2462 L 46.287,146.464 c -4.0873,4.088 -10.7142,4.088 -14.8016,0 z m 26.6428,26.643 c 4.0874,4.087 10.7143,4.087 14.8016,0 l 11.8413,-11.841 c 7.3572,-7.357 19.2859,-7.357 26.6429,0 l 10.361,10.361 c 4.087,4.087 10.714,4.087 14.802,0 4.087,-4.087 4.087,-10.714 0,-14.802 l -10.361,-10.361 c -15.532,-15.532 -40.7146,-15.532 -56.2465,0 l -11.8413,11.841 c -4.0873,4.088 -4.0873,10.715 0,14.802 z M 138.057,39.8931 c -4.087,-4.0873 -10.714,-4.0873 -14.802,0 l -11.841,11.8413 c -7.357,7.3573 -19.2856,7.3573 -26.6429,0 L 74.41,41.3733 c -4.0874,-4.0873 -10.7143,-4.0873 -14.8016,0 -4.0874,4.0874 -4.0874,10.7143 0,14.8016 L 69.9695,66.536 c 15.5319,15.532 40.7145,15.532 56.2465,0 l 11.841,-11.8413 c 4.087,-4.0873 4.087,-10.7142 0,-14.8016 z m -0.832,67.3619 c 0,2.304 0.465,4.583 1.397,6.838 0.98,2.255 2.279,4.29 3.897,6.104 1.667,1.765 3.603,3.211 5.809,4.338 2.206,1.128 4.584,1.716 7.133,1.765 2.648,0 4.976,-0.318 6.986,-0.956 2.059,-0.686 4.118,-1.887 6.177,-3.603 0.981,-0.833 2.059,-1.593 3.236,-2.28 1.225,-0.735 2.549,-1.103 3.971,-1.103 0.833,0 1.716,0.197 2.647,0.589 0.931,0.343 1.887,0.931 2.868,1.765 0.833,0.735 1.446,1.617 1.838,2.647 0.442,0.98 0.638,2.034 0.589,3.162 0,1.078 -0.246,2.157 -0.736,3.235 -0.441,1.079 -1.127,2.108 -2.059,3.089 -3.039,3.088 -6.667,5.442 -10.883,7.059 -4.167,1.618 -8.555,2.427 -13.163,2.427 -4.902,0 -9.511,-0.882 -13.825,-2.647 -4.314,-1.814 -8.089,-4.29 -11.324,-7.427 -3.236,-3.138 -5.785,-6.815 -7.648,-11.031 -1.863,-4.265 -2.794,-8.848 -2.794,-13.751 0.049,-0.049 0.073,-0.098 0.073,-0.147 h -0.073 c 0,-4.902 0.931,-9.486 2.794,-13.7511 1.863,-4.3141 4.412,-8.0399 7.648,-11.1774 3.235,-3.1866 7.01,-5.6868 11.324,-7.5007 4.314,-1.8139 8.923,-2.7208 13.825,-2.7208 4.608,0 8.996,0.7844 13.163,2.3532 4.216,1.5197 7.844,3.8238 10.883,6.9123 0.932,0.9315 1.643,1.961 2.133,3.0885 0.49,1.0785 0.735,2.1816 0.735,3.3091 0.049,1.0785 -0.147,2.1325 -0.588,3.162 -0.441,0.9805 -1.103,1.8629 -1.986,2.6473 -0.98,0.8334 -1.912,1.4217 -2.794,1.7649 -0.882,0.3431 -1.74,0.5147 -2.574,0.5147 -1.421,0 -2.745,-0.3431 -3.971,-1.0295 -1.176,-0.7353 -2.279,-1.5197 -3.309,-2.3531 -2.059,-1.5688 -4.093,-2.6963 -6.103,-3.3827 -2.01,-0.6863 -4.118,-1.0295 -6.324,-1.0295 -2.5,0 -4.903,0.5148 -7.207,1.5443 -2.304,1.0295 -4.314,2.4267 -6.03,4.1915 -1.716,1.7649 -3.088,3.7994 -4.118,6.1035 -1.029,2.3045 -1.544,4.7065 -1.544,7.2065 z" />
  <defs
     id="defs41" />
</svg>
