<?xml version="1.0" encoding="UTF-8" standalone="no"?>
<svg
   xmlns:dc="http://purl.org/dc/elements/1.1/"
   xmlns:cc="http://creativecommons.org/ns#"
   xmlns:rdf="http://www.w3.org/1999/02/22-rdf-syntax-ns#"
   xmlns:svg="http://www.w3.org/2000/svg"
   xmlns="http://www.w3.org/2000/svg"
   xmlns:sodipodi="http://sodipodi.sourceforge.net/DTD/sodipodi-0.dtd"
   xmlns:inkscape="http://www.inkscape.org/namespaces/inkscape"
   width="1024"
   height="213"
   viewBox="0 0 1024 213"
   fill="none"
   version="1.1"
   id="svg43"
   sodipodi:docname="cm-logo-web.svg"
   inkscape:version="0.92.2 5c3e80d, 2017-08-06">
  <metadata
     id="metadata47">
    <rdf:RDF>
      <cc:Work
         rdf:about="">
        <dc:format>image/svg+xml</dc:format>
        <dc:type
           rdf:resource="http://purl.org/dc/dcmitype/StillImage" />
        <dc:title></dc:title>
      </cc:Work>
    </rdf:RDF>
  </metadata>
  <sodipodi:namedview
     pagecolor="#ffffff"
     bordercolor="#666666"
     borderopacity="1"
     objecttolerance="10"
     gridtolerance="10"
     guidetolerance="10"
     inkscape:pageopacity="0"
     inkscape:pageshadow="2"
     inkscape:window-width="1269"
     inkscape:window-height="759"
     id="namedview45"
     showgrid="false"
     inkscape:zoom="0.6328125"
     inkscape:cx="447.51487"
     inkscape:cy="15.277556"
     inkscape:window-x="0"
     inkscape:window-y="0"
     inkscape:window-maximized="0"
     inkscape:current-layer="svg43" />
  <path
     style="fill:#ff006b"
     inkscape:connector-curvature="0"
     id="path4"
     d="m 137.225,107.255 c 0,2.304 0.465,4.583 1.397,6.838 0.98,2.255 2.279,4.29 3.897,6.104 1.667,1.765 3.603,3.211 5.809,4.338 2.206,1.128 4.584,1.716 7.133,1.765 2.648,0 4.976,-0.318 6.986,-0.956 2.059,-0.686 4.118,-1.887 6.177,-3.603 0.981,-0.833 2.059,-1.593 3.236,-2.28 1.225,-0.735 2.549,-1.103 3.971,-1.103 0.833,0 1.716,0.197 2.647,0.589 0.931,0.343 1.887,0.931 2.868,1.765 0.833,0.735 1.446,1.617 1.838,2.647 0.442,0.98 0.638,2.034 0.589,3.162 0,1.078 -0.246,2.157 -0.736,3.235 -0.441,1.079 -1.127,2.108 -2.059,3.089 -3.039,3.088 -6.667,5.442 -10.883,7.059 -4.167,1.618 -8.555,2.427 -13.163,2.427 -4.902,0 -9.511,-0.882 -13.825,-2.647 -4.314,-1.814 -8.089,-4.29 -11.324,-7.427 -3.236,-3.138 -5.785,-6.815 -7.648,-11.031 -1.863,-4.265 -2.794,-8.848 -2.794,-13.751 0.049,-0.049 0.073,-0.098 0.073,-0.147 h -0.073 c 0,-4.902 0.931,-9.486 2.794,-13.7511 1.863,-4.3141 4.412,-8.0399 7.648,-11.1774 3.235,-3.1866 7.01,-5.6868 11.324,-7.5007 4.314,-1.8139 8.923,-2.7208 13.825,-2.7208 4.608,0 8.996,0.7844 13.163,2.3532 4.216,1.5197 7.844,3.8238 10.883,6.9123 0.932,0.9315 1.643,1.961 2.133,3.0885 0.49,1.0785 0.735,2.1816 0.735,3.3091 0.049,1.0785 -0.147,2.1325 -0.588,3.162 -0.441,0.9805 -1.103,1.8629 -1.986,2.6473 -0.98,0.8334 -1.912,1.4217 -2.794,1.7649 -0.882,0.3431 -1.74,0.5147 -2.574,0.5147 -1.421,0 -2.745,-0.3431 -3.971,-1.0295 -1.176,-0.7353 -2.279,-1.5197 -3.309,-2.3531 -2.059,-1.5688 -4.093,-2.6963 -6.103,-3.3827 -2.01,-0.6863 -4.118,-1.0295 -6.324,-1.0295 -2.5,0 -4.903,0.5148 -7.207,1.5443 -2.304,1.0295 -4.314,2.4267 -6.03,4.1915 -1.716,1.7649 -3.088,3.7994 -4.118,6.1035 -1.029,2.3045 -1.544,4.7065 -1.544,7.2065 z" />
  <path
     style="fill:#ff006b"
     inkscape:connector-curvature="0"
     id="path6"
     d="m 210.118,133.58 c 0,1.079 -0.196,2.108 -0.588,3.089 -0.393,0.98 -0.956,1.814 -1.692,2.5 -0.686,0.686 -1.495,1.25 -2.426,1.691 -0.932,0.393 -1.937,0.589 -3.015,0.589 -1.128,0 -2.206,-0.196 -3.236,-0.589 -0.98,-0.441 -1.838,-1.005 -2.574,-1.691 -0.735,-0.686 -1.323,-1.52 -1.765,-2.5 -0.441,-0.981 -0.661,-2.01 -0.661,-3.089 v -23.752 c 0,-5.049 0.956,-9.804 2.868,-14.2656 1.96,-4.4612 4.608,-8.3586 7.941,-11.6922 3.334,-3.3336 7.231,-5.9564 11.693,-7.8683 4.461,-1.961 9.192,-2.9415 14.192,-2.9415 h 0.147 c 2.647,0 4.682,0.7599 6.103,2.2796 1.471,1.4708 2.207,3.3582 2.207,5.6623 0,1.1275 -0.221,2.1815 -0.662,3.162 -0.441,0.9805 -1.054,1.8384 -1.839,2.5738 -0.735,0.6863 -1.617,1.2501 -2.647,1.6913 -0.98,0.3922 -2.034,0.5883 -3.162,0.5883 h -0.147 c -2.794,0 -5.466,0.5392 -8.015,1.6178 -2.501,1.0785 -4.682,2.5492 -6.545,4.4121 -1.863,1.8629 -3.358,4.0445 -4.486,6.5444 -1.127,2.5 -1.691,5.172 -1.691,8.016 z" />
  <path
     style="fill:#ff006b"
     inkscape:connector-curvature="0"
     id="path8"
     d="m 241.842,107.255 c 0,-4.854 0.931,-9.3885 2.794,-13.6046 1.863,-4.265 4.388,-7.9909 7.574,-11.1774 3.187,-3.1865 6.888,-5.6868 11.104,-7.5006 4.265,-1.8629 8.8,-2.7944 13.604,-2.7944 4.854,0 9.413,0.9315 13.678,2.7944 4.265,1.8138 7.966,4.3141 11.104,7.5006 3.186,3.1865 5.686,6.9124 7.5,11.1774 1.814,4.2161 2.721,8.7506 2.721,13.6046 v 26.031 c 0,1.128 -0.22,2.182 -0.662,3.162 -0.392,0.981 -0.956,1.839 -1.691,2.574 -0.735,0.735 -1.618,1.324 -2.647,1.765 -0.981,0.441 -2.035,0.662 -3.162,0.662 -1.912,0 -3.53,-0.564 -4.854,-1.692 -1.323,-1.127 -2.206,-2.549 -2.647,-4.265 -2.794,2.108 -5.834,3.775 -9.118,5.001 -3.236,1.225 -6.643,1.838 -10.222,1.838 -4.804,0 -9.339,-0.907 -13.604,-2.721 -4.216,-1.863 -7.917,-4.387 -11.104,-7.574 -3.186,-3.187 -5.711,-6.912 -7.574,-11.177 -1.863,-4.265 -2.794,-8.8 -2.794,-13.604 z m 15.957,0 c 0,2.598 0.49,5.073 1.471,7.427 1.029,2.304 2.402,4.338 4.118,6.103 1.764,1.716 3.799,3.089 6.103,4.118 2.304,0.981 4.78,1.471 7.427,1.471 2.647,0 5.123,-0.49 7.427,-1.471 2.353,-1.029 4.388,-2.402 6.104,-4.118 1.716,-1.765 3.064,-3.799 4.044,-6.103 0.981,-2.354 1.471,-4.829 1.471,-7.427 0,-2.648 -0.49,-5.123 -1.471,-7.4276 -0.98,-2.3531 -2.328,-4.3876 -4.044,-6.1034 -1.716,-1.7159 -3.751,-3.064 -6.104,-4.0445 -2.304,-1.0295 -4.78,-1.5443 -7.427,-1.5443 -2.598,0 -5.074,0.5148 -7.427,1.5443 -2.304,0.9805 -4.339,2.3286 -6.103,4.0445 -1.716,1.7158 -3.089,3.7503 -4.118,6.1034 -0.981,2.3046 -1.471,4.7796 -1.471,7.4276 z" />
  <path
     style="fill:#ff006b"
     inkscape:connector-curvature="0"
     id="path10"
     d="m 391.395,133.727 c 0,1.128 -0.221,2.182 -0.662,3.162 -0.392,0.932 -0.931,1.765 -1.618,2.501 -0.686,0.686 -1.52,1.225 -2.5,1.617 -0.931,0.393 -1.936,0.589 -3.015,0.589 -1.079,0 -2.133,-0.196 -3.162,-0.589 -0.98,-0.392 -1.838,-0.931 -2.574,-1.617 -0.735,-0.736 -1.323,-1.569 -1.765,-2.501 -0.441,-0.98 -0.661,-2.034 -0.661,-3.162 v -27.355 c 0,-0.392 0.024,-0.686 0.073,-0.882 -0.098,-2.402 -0.588,-4.658 -1.471,-6.7656 -0.882,-2.108 -2.083,-3.9464 -3.603,-5.5152 -1.52,-1.5687 -3.309,-2.7943 -5.368,-3.6768 -2.01,-0.9314 -4.241,-1.3972 -6.692,-1.3972 -2.5,0 -4.804,0.4658 -6.912,1.3972 -2.108,0.8825 -3.922,2.1326 -5.442,3.7503 -1.47,1.6178 -2.647,3.5298 -3.529,5.7358 -0.834,2.1575 -1.251,4.4855 -1.251,6.9855 v 27.723 c 0,1.128 -0.196,2.182 -0.588,3.162 -0.392,0.932 -0.956,1.765 -1.691,2.501 -0.686,0.686 -1.495,1.225 -2.427,1.617 -0.931,0.393 -1.961,0.589 -3.088,0.589 -1.079,0 -2.108,-0.196 -3.089,-0.589 -0.98,-0.392 -1.863,-0.931 -2.647,-1.617 -0.735,-0.736 -1.324,-1.569 -1.765,-2.501 -0.441,-0.98 -0.662,-2.034 -0.662,-3.162 v -27.723 c 0,-4.706 0.834,-9.0935 2.5,-13.1625 1.716,-4.118 4.045,-7.6967 6.986,-10.7362 2.991,-3.0885 6.496,-5.5152 10.516,-7.28 4.069,-1.7649 8.432,-2.6473 13.089,-2.6473 4.707,0 9.07,0.8824 13.09,2.6473 4.02,1.7648 7.5,4.1915 10.442,7.28 2.941,3.0395 5.245,6.6182 6.912,10.7362 1.716,4.069 2.574,8.4565 2.574,13.1625 z" />
  <path
     style="fill:#ff006b"
     inkscape:connector-curvature="0"
     id="path12"
     d="m 405.614,54.9707 c 0,-1.1766 0.196,-2.2551 0.588,-3.2356 0.441,-1.0295 1.005,-1.9119 1.691,-2.6473 0.736,-0.7844 1.593,-1.3727 2.574,-1.7649 0.98,-0.4412 2.034,-0.6618 3.162,-0.6618 1.177,0 2.231,0.2206 3.162,0.6618 0.98,0.3922 1.814,0.9805 2.5,1.7649 0.736,0.7354 1.299,1.6178 1.692,2.6473 0.392,0.9805 0.588,2.059 0.588,3.2356 v 22.9431 c 2.794,-1.8139 5.785,-3.2111 8.971,-4.1915 3.236,-1.0295 6.618,-1.5443 10.148,-1.5443 4.853,0 9.388,0.9315 13.604,2.7944 4.265,1.8138 7.967,4.3141 11.104,7.5006 3.187,3.1375 5.687,6.8388 7.501,11.1039 1.863,4.2651 2.794,8.8241 2.794,13.6781 0,4.804 -0.931,9.339 -2.794,13.604 -1.814,4.265 -4.314,7.99 -7.501,11.177 -3.137,3.187 -6.839,5.711 -11.104,7.574 -4.216,1.814 -8.751,2.721 -13.604,2.721 -4.804,0 -9.339,-0.907 -13.604,-2.721 -4.265,-1.863 -7.991,-4.387 -11.177,-7.574 -3.187,-3.187 -5.712,-6.912 -7.575,-11.177 -1.813,-4.265 -2.72,-8.8 -2.72,-13.604 z m 15.957,52.2843 c 0,2.598 0.49,5.073 1.471,7.427 1.029,2.304 2.402,4.338 4.118,6.103 1.764,1.716 3.799,3.089 6.103,4.118 2.304,0.981 4.78,1.471 7.427,1.471 2.647,0 5.123,-0.49 7.427,-1.471 2.304,-1.029 4.314,-2.402 6.03,-4.118 1.765,-1.765 3.138,-3.799 4.118,-6.103 0.981,-2.354 1.471,-4.829 1.471,-7.427 0,-2.648 -0.49,-5.123 -1.471,-7.4276 -0.98,-2.3531 -2.353,-4.3876 -4.118,-6.1034 -1.716,-1.7159 -3.726,-3.064 -6.03,-4.0445 -2.304,-1.0295 -4.78,-1.5443 -7.427,-1.5443 -2.647,0 -5.123,0.5148 -7.427,1.5443 -2.304,0.9805 -4.339,2.3286 -6.103,4.0445 -1.716,1.7158 -3.089,3.7503 -4.118,6.1034 -0.981,2.3046 -1.471,4.7796 -1.471,7.4276 z" />
  <path
     style="fill:#ff006b"
     inkscape:connector-curvature="0"
     id="path14"
     d="m 499.921,114.387 c 0.637,1.814 1.52,3.481 2.647,5.001 1.177,1.471 2.525,2.745 4.045,3.824 1.519,1.029 3.186,1.838 5,2.426 1.814,0.54 3.726,0.809 5.736,0.809 5.049,0 9.02,-1.323 11.913,-3.971 0.98,-0.686 1.936,-1.176 2.867,-1.47 0.932,-0.343 1.814,-0.515 2.648,-0.515 1.372,0 2.598,0.368 3.676,1.103 1.079,0.686 1.961,1.593 2.648,2.721 0.49,0.784 0.833,1.642 1.029,2.574 0.245,0.882 0.294,1.789 0.147,2.72 -0.098,0.932 -0.392,1.863 -0.882,2.795 -0.441,0.882 -1.128,1.691 -2.059,2.426 -1.079,0.981 -2.304,1.937 -3.677,2.868 -1.373,0.883 -2.966,1.667 -4.78,2.353 -1.765,0.687 -3.775,1.226 -6.03,1.618 -2.206,0.441 -4.706,0.662 -7.5,0.662 -4.854,0 -9.413,-0.907 -13.678,-2.721 -4.265,-1.863 -7.991,-4.387 -11.177,-7.574 -3.187,-3.187 -5.712,-6.888 -7.574,-11.104 -1.863,-4.265 -2.795,-8.824 -2.795,-13.677 0,-4.854 0.932,-9.413 2.795,-13.6781 1.862,-4.2651 4.387,-7.9664 7.574,-11.1039 3.186,-3.1865 6.912,-5.6868 11.177,-7.5006 4.265,-1.8629 8.824,-2.7944 13.678,-2.7944 4.804,0 9.314,0.9069 13.53,2.7208 4.265,1.8139 7.991,4.2896 11.178,7.4271 3.235,3.0885 5.785,6.7408 7.647,10.9568 1.912,4.2161 2.893,8.7263 2.942,13.5303 0,2.255 -0.735,4.094 -2.206,5.515 -1.422,1.373 -3.309,2.059 -5.662,2.059 z m 36.326,-13.236 c -0.539,-2.0099 -1.397,-3.8238 -2.573,-5.4416 -1.128,-1.6178 -2.501,-2.9904 -4.118,-4.118 -1.618,-1.1275 -3.432,-1.9854 -5.442,-2.5737 -2.01,-0.5883 -4.143,-0.8825 -6.398,-0.8825 -2.255,0 -4.387,0.3187 -6.397,0.956 -1.961,0.5883 -3.751,1.4707 -5.368,2.6473 -1.569,1.1275 -2.917,2.5002 -4.045,4.118 -1.127,1.5688 -1.961,3.3336 -2.5,5.2945 z" />
  <path
     style="fill:#ff006b"
     inkscape:connector-curvature="0"
     id="path16"
     d="m 577.94,133.58 c 0,1.079 -0.196,2.108 -0.588,3.089 -0.393,0.98 -0.956,1.814 -1.692,2.5 -0.686,0.686 -1.495,1.25 -2.426,1.691 -0.932,0.393 -1.937,0.589 -3.015,0.589 -1.128,0 -2.206,-0.196 -3.236,-0.589 -0.98,-0.441 -1.838,-1.005 -2.574,-1.691 -0.735,-0.686 -1.323,-1.52 -1.765,-2.5 -0.441,-0.981 -0.661,-2.01 -0.661,-3.089 v -23.752 c 0,-5.049 0.956,-9.804 2.867,-14.2656 1.961,-4.4612 4.609,-8.3586 7.942,-11.6922 3.334,-3.3336 7.231,-5.9564 11.693,-7.8683 4.461,-1.961 9.191,-2.9415 14.192,-2.9415 h 0.147 c 2.647,0 4.682,0.7599 6.103,2.2796 1.471,1.4708 2.206,3.3582 2.206,5.6623 0,1.1275 -0.22,2.1815 -0.661,3.162 -0.442,0.9805 -1.054,1.8384 -1.839,2.5738 -0.735,0.6863 -1.618,1.2501 -2.647,1.6913 -0.981,0.3922 -2.035,0.5883 -3.162,0.5883 h -0.147 c -2.794,0 -5.466,0.5392 -8.016,1.6178 -2.5,1.0785 -4.681,2.5492 -6.544,4.4121 -1.863,1.8629 -3.358,4.0445 -4.486,6.5444 -1.127,2.5 -1.691,5.172 -1.691,8.016 z" />
  <path
     style="fill:#ff006b"
     inkscape:connector-curvature="0"
     id="path18"
     d="m 631.368,133.58 c 0,1.079 -0.196,2.108 -0.588,3.089 -0.392,0.98 -0.956,1.814 -1.692,2.5 -0.686,0.686 -1.495,1.25 -2.426,1.691 -0.932,0.393 -1.937,0.589 -3.015,0.589 -1.128,0 -2.206,-0.196 -3.236,-0.589 -0.98,-0.441 -1.838,-1.005 -2.573,-1.691 -0.736,-0.686 -1.324,-1.52 -1.765,-2.5 -0.442,-0.981 -0.662,-2.01 -0.662,-3.089 v -23.752 c 0,-5.049 0.956,-9.804 2.868,-14.2656 1.961,-4.4612 4.608,-8.3586 7.942,-11.6922 3.333,-3.3336 7.231,-5.9564 11.692,-7.8683 4.461,-1.961 9.192,-2.9415 14.192,-2.9415 h 0.147 c 2.647,0 4.682,0.7599 6.104,2.2796 1.47,1.4708 2.206,3.3582 2.206,5.6623 0,1.1275 -0.221,2.1815 -0.662,3.162 -0.441,0.9805 -1.054,1.8384 -1.838,2.5738 -0.736,0.6863 -1.618,1.2501 -2.648,1.6913 -0.98,0.3922 -2.034,0.5883 -3.162,0.5883 h -0.147 c -2.794,0 -5.466,0.5392 -8.015,1.6178 -2.5,1.0785 -4.682,2.5492 -6.545,4.4121 -1.863,1.8629 -3.358,4.0445 -4.486,6.5444 -1.127,2.5 -1.691,5.172 -1.691,8.016 z" />
  <path
     style="fill:#ff006b"
     inkscape:connector-curvature="0"
     id="path20"
     d="m 684.943,108.505 c 0,2.5 0.466,4.853 1.398,7.059 0.931,2.157 2.206,4.045 3.823,5.662 1.618,1.569 3.53,2.819 5.736,3.751 2.206,0.882 4.559,1.323 7.06,1.323 2.5,0 4.828,-0.465 6.986,-1.397 2.206,-0.98 4.093,-2.28 5.662,-3.897 1.618,-1.667 2.892,-3.604 3.824,-5.81 0.931,-2.206 1.397,-4.583 1.397,-7.133 V 81.0023 c 0,-1.0785 0.22,-2.0835 0.662,-3.015 0.441,-0.9804 1.029,-1.8384 1.764,-2.5737 0.736,-0.7354 1.594,-1.2992 2.574,-1.6913 1.03,-0.4413 2.084,-0.6619 3.162,-0.6619 1.128,0 2.157,0.2206 3.089,0.6619 0.931,0.3921 1.74,0.9559 2.426,1.6913 0.736,0.7353 1.3,1.5933 1.692,2.5737 0.392,0.9315 0.588,1.9365 0.588,3.015 v 27.3557 c 0,4.02 -0.662,7.843 -1.985,11.471 -1.324,3.579 -3.138,6.814 -5.442,9.707 -2.304,2.892 -5.049,5.368 -8.236,7.427 -3.187,2.059 -6.643,3.53 -10.369,4.412 v 16.913 c 0,1.128 -0.22,2.182 -0.661,3.162 -0.393,0.981 -0.956,1.814 -1.692,2.501 -0.735,0.735 -1.593,1.299 -2.573,1.691 -0.932,0.441 -1.937,0.662 -3.015,0.662 -2.305,0 -4.216,-0.76 -5.736,-2.28 -1.52,-1.52 -2.28,-3.432 -2.28,-5.736 v -16.986 c -3.726,-0.932 -7.157,-2.427 -10.295,-4.486 -3.137,-2.059 -5.858,-4.535 -8.162,-7.427 -2.304,-2.893 -4.118,-6.128 -5.442,-9.707 -1.275,-3.579 -1.912,-7.354 -1.912,-11.324 V 81.0023 c 0,-1.0785 0.196,-2.0835 0.588,-3.015 0.442,-0.9804 1.005,-1.8384 1.692,-2.5737 0.735,-0.7354 1.593,-1.2992 2.574,-1.6913 0.98,-0.4413 2.009,-0.6619 3.088,-0.6619 1.079,0 2.108,0.2206 3.089,0.6619 0.98,0.3921 1.838,0.9559 2.573,1.6913 0.736,0.7353 1.299,1.5933 1.692,2.5737 0.441,0.9315 0.661,1.9365 0.661,3.015 z" />
  <path
     style="fill:#7c7c7c"
     inkscape:connector-curvature="0"
     id="path22"
     d="m 846.133,138.213 c 0,0.931 -0.319,1.716 -0.956,2.353 -0.589,0.588 -1.299,0.883 -2.133,0.883 -0.882,0 -1.667,-0.295 -2.353,-0.883 -0.637,-0.637 -0.956,-1.422 -0.956,-2.353 V 94.827 c -0.049,-2.3041 -0.588,-4.4367 -1.618,-6.3976 -1.029,-2.01 -2.353,-3.7258 -3.971,-5.1475 -1.617,-1.4707 -3.48,-2.6228 -5.588,-3.4562 -2.059,-0.8334 -4.192,-1.2501 -6.398,-1.2501 -2.353,0 -4.608,0.4657 -6.765,1.3972 -2.108,0.9314 -3.971,2.1815 -5.589,3.7503 -1.618,1.5197 -2.892,3.3091 -3.824,5.3681 -0.931,2.059 -1.397,4.2161 -1.397,6.4712 v 42.6506 c 0,0.931 -0.319,1.716 -0.956,2.353 -0.637,0.588 -1.373,0.883 -2.206,0.883 -0.833,0 -1.593,-0.295 -2.28,-0.883 -0.637,-0.637 -0.956,-1.422 -0.956,-2.353 V 94.827 c -0.049,-2.3041 -0.563,-4.4367 -1.544,-6.3976 -0.98,-2.01 -2.279,-3.7258 -3.897,-5.1475 -1.618,-1.4707 -3.481,-2.6228 -5.589,-3.4562 -2.059,-0.8334 -4.216,-1.2501 -6.471,-1.2501 -2.353,0 -4.584,0.4412 -6.692,1.3237 -2.059,0.8824 -3.897,2.0835 -5.515,3.6032 -1.618,1.5197 -2.917,3.2846 -3.897,5.2946 -0.932,2.0099 -1.422,4.118 -1.471,6.324 v 43.0919 c 0,0.931 -0.319,1.716 -0.956,2.353 -0.588,0.588 -1.299,0.883 -2.133,0.883 -0.882,0 -1.666,-0.295 -2.353,-0.883 -0.637,-0.637 -0.956,-1.422 -0.956,-2.353 V 95.2682 c 0,-3.1865 0.662,-6.177 1.986,-8.9713 1.323,-2.7944 3.088,-5.2456 5.294,-7.3536 2.206,-2.108 4.756,-3.7503 7.648,-4.9269 2.892,-1.2256 5.907,-1.8384 9.045,-1.8384 2.206,0 4.314,0.2942 6.324,0.8824 2.059,0.5393 3.971,1.3482 5.736,2.4267 1.765,1.0295 3.382,2.2796 4.853,3.7503 1.471,1.4217 2.721,3.015 3.75,4.7799 1.079,-1.7649 2.354,-3.3582 3.824,-4.7799 1.52,-1.4707 3.187,-2.7208 5.001,-3.7503 1.814,-1.0785 3.75,-1.8874 5.809,-2.4267 2.059,-0.5882 4.167,-0.8824 6.324,-0.8824 3.187,0 6.177,0.5883 8.971,1.7649 2.844,1.1765 5.32,2.7698 7.428,4.7798 2.157,2.01 3.872,4.3876 5.147,7.1329 1.324,2.7454 2.059,5.6623 2.206,8.7508 0.049,0.098 0.074,0.2696 0.074,0.5147 z" />
  <path
     style="fill:#7c7c7c"
     inkscape:connector-curvature="0"
     id="path24"
     d="m 858.113,107.328 c 0,-4.853 0.907,-9.4125 2.721,-13.6776 1.863,-4.3141 4.388,-8.0399 7.574,-11.1774 3.187,-3.1865 6.913,-5.6868 11.178,-7.5006 4.265,-1.8629 8.799,-2.7944 13.604,-2.7944 4.853,0 9.388,0.9069 13.604,2.7208 4.216,1.8139 7.893,4.3141 11.03,7.5007 3.187,3.1375 5.687,6.8143 7.501,11.0303 1.863,4.2161 2.819,8.7512 2.868,13.6042 v 31.032 c 0,0.98 -0.294,1.789 -0.883,2.427 -0.588,0.637 -1.372,0.956 -2.353,0.956 -0.931,0 -1.691,-0.319 -2.28,-0.956 -0.539,-0.638 -0.808,-1.447 -0.808,-2.427 l -0.074,-11.03 c -1.569,2.255 -3.407,4.338 -5.515,6.25 -2.059,1.863 -4.314,3.481 -6.765,4.853 -2.403,1.324 -5.001,2.378 -7.795,3.163 -2.745,0.735 -5.589,1.103 -8.53,1.103 -4.805,0 -9.339,-0.907 -13.604,-2.721 -4.265,-1.863 -7.991,-4.388 -11.178,-7.574 -3.186,-3.187 -5.711,-6.913 -7.574,-11.178 -1.814,-4.265 -2.721,-8.8 -2.721,-13.604 z m 6.398,0 c 0,3.873 0.735,7.55 2.206,11.03 1.52,3.481 3.554,6.545 6.103,9.192 2.599,2.599 5.638,4.658 9.119,6.177 3.48,1.52 7.231,2.28 11.251,2.28 4.069,0 7.843,-0.76 11.324,-2.28 3.481,-1.519 6.496,-3.578 9.045,-6.177 2.598,-2.647 4.633,-5.711 6.104,-9.192 1.47,-3.48 2.206,-7.157 2.206,-11.03 0,-3.971 -0.736,-7.6967 -2.206,-11.1774 -1.471,-3.5297 -3.506,-6.5937 -6.104,-9.1919 -2.549,-2.5983 -5.564,-4.6328 -9.045,-6.1035 -3.481,-1.5197 -7.255,-2.2796 -11.324,-2.2796 -3.971,0 -7.722,0.7599 -11.251,2.2796 -3.481,1.4707 -6.52,3.5052 -9.119,6.1035 -2.549,2.5982 -4.583,5.6622 -6.103,9.1919 -1.471,3.4807 -2.206,7.2064 -2.206,11.1774 z" />
  <path
     style="fill:#7c7c7c"
     inkscape:connector-curvature="0"
     id="path26"
     d="m 946.122,58.5004 c 0,-1.2746 0.416,-2.3041 1.25,-3.0885 0.833,-0.8334 1.814,-1.2501 2.941,-1.2501 1.275,0 2.329,0.4167 3.162,1.2501 0.834,0.7844 1.25,1.8139 1.25,3.0885 0,1.1275 -0.416,2.108 -1.25,2.9414 -0.833,0.8334 -1.887,1.2501 -3.162,1.2501 -1.127,0 -2.108,-0.4167 -2.941,-1.2501 -0.834,-0.8334 -1.25,-1.8139 -1.25,-2.9414 z m 7.427,79.6386 c 0,0.932 -0.319,1.716 -0.956,2.354 -0.589,0.637 -1.324,0.956 -2.206,0.956 -0.834,0 -1.594,-0.319 -2.28,-0.956 -0.637,-0.638 -0.956,-1.422 -0.956,-2.354 V 76.3695 c 0,-0.9314 0.319,-1.6913 0.956,-2.2796 0.637,-0.6373 1.397,-0.9559 2.28,-0.9559 0.931,0 1.691,0.3186 2.279,0.9559 0.589,0.5883 0.883,1.3482 0.883,2.2796 z" />
  <path
     style="fill:#7c7c7c"
     inkscape:connector-curvature="0"
     id="path28"
     d="m 995.117,135.051 c 0.98,0 1.765,0.319 2.353,0.956 0.588,0.637 0.883,1.397 0.883,2.28 0,0.931 -0.295,1.691 -0.883,2.279 -0.539,0.539 -1.274,0.834 -2.206,0.883 -3.383,0 -6.496,-0.589 -9.339,-1.765 -2.843,-1.177 -5.295,-2.844 -7.354,-5.001 -2.059,-2.157 -3.676,-4.755 -4.853,-7.794 -1.127,-3.089 -1.691,-6.496 -1.691,-10.222 V 49.9702 c 0,-0.9804 0.294,-1.7648 0.882,-2.3531 0.638,-0.6373 1.397,-0.956 2.28,-0.956 0.882,0 1.642,0.3187 2.279,0.956 0.638,0.5883 0.956,1.3727 0.956,2.3531 v 66.9908 c 0.049,5.638 1.569,10.075 4.56,13.31 2.99,3.187 7.035,4.78 12.133,4.78 z" />
  <path
     style="clip-rule:evenodd;fill:#ff006b;fill-rule:evenodd"
     inkscape:connector-curvature="0"
     id="path30"
     d="m 138.057,39.8931 c -4.087,-4.0873 -10.714,-4.0873 -14.802,0 l -11.841,11.8413 c -7.357,7.3573 -19.2856,7.3573 -26.6429,0 L 74.41,41.3733 c -4.0874,-4.0873 -10.7143,-4.0873 -14.8016,0 -4.0874,4.0874 -4.0874,10.7143 0,14.8016 L 69.9695,66.536 c 15.5319,15.532 40.7145,15.532 56.2465,0 l 11.841,-11.8413 c 4.087,-4.0873 4.087,-10.7142 0,-14.8016 z" />
  <path
     style="clip-rule:evenodd;fill:#ff006b;fill-rule:evenodd"
     inkscape:connector-curvature="0"
     id="path32"
     d="m 58.1282,173.107 c 4.0874,4.087 10.7143,4.087 14.8016,0 l 11.8413,-11.841 c 7.3572,-7.357 19.2859,-7.357 26.6429,0 l 10.361,10.361 c 4.087,4.087 10.714,4.087 14.802,0 4.087,-4.087 4.087,-10.714 0,-14.802 l -10.361,-10.361 c -15.532,-15.532 -40.7146,-15.532 -56.2465,0 l -11.8413,11.841 c -4.0873,4.088 -4.0873,10.715 0,14.802 z" />
  <path
     style="clip-rule:evenodd;fill:#ff006b;fill-rule:evenodd"
     inkscape:connector-curvature="0"
     id="path34"
     d="m 31.4854,146.464 c -4.0873,-4.087 -4.0873,-10.714 0,-14.801 l 11.8413,-11.842 c 7.3573,-7.357 7.3573,-19.285 0,-26.6426 L 32.9656,82.8173 c -4.0873,-4.0874 -4.0873,-10.7143 0,-14.8016 4.0874,-4.0874 10.7143,-4.0874 14.8016,0 l 10.3611,10.3611 c 15.532,15.5319 15.532,40.7142 0,56.2462 L 46.287,146.464 c -4.0873,4.088 -10.7142,4.088 -14.8016,0 z" />
  <defs
     id="defs41" />
</svg>
